<?xml version="1.0" encoding="UTF-8"?>
<svg width="76px" height="20px" viewBox="0 0 76 20" version="1.1" xmlns="http://www.w3.org/2000/svg" xmlns:xlink="http://www.w3.org/1999/xlink">
    <!-- Generator: Sketch 51 (57462) - http://www.bohemiancoding.com/sketch -->
    <title>pego</title>
    <desc>Created with Sketch.</desc>
    <defs></defs>
    <g id="👉-Start-new-project" stroke="none" stroke-width="1" fill="none" fill-rule="evenodd">
        <g id="bruno-pego-xl---12-col" transform="translate(-166.000000, -53.000000)" fill="#FFFFFF">
            <g id="Logo" transform="translate(166.000000, 53.000000)">
                <path d="M10.4,14.48 C7.688,14.48 5.72,13.304 4.64,11.84 L4.64,18.8 L0.92,18.8 L0.92,0.776 L4.64,0.776 L4.64,2.912 C5.72,1.448 7.688,0.272 10.4,0.272 C14.6,0.272 17.528,3.056 17.528,7.376 C17.528,11.696 14.6,14.48 10.4,14.48 Z M9.464,3.368 C7.52,3.368 5.816,4.016 4.664,5.528 L4.664,9.224 C5.816,10.736 7.52,11.384 9.464,11.384 C12.344,11.384 13.976,9.968 13.976,7.376 C13.976,4.784 12.344,3.368 9.464,3.368 Z M23.716,8.24 C24.052,10.616 25.852,11.696 28.924,11.696 C31.204,11.696 32.644,11.096 34.012,9.992 L36.004,12.176 C34.156,13.808 31.78,14.528 28.732,14.528 C23.284,14.528 20.14,11.792 20.14,7.4 C20.14,2.984 23.26,0.248 28.468,0.248 C33.268,0.248 36.484,2.696 36.484,7.376 C36.484,7.808 36.46,8.024 36.388,8.24 L23.716,8.24 Z M28.492,3.08 C26.068,3.08 24.412,3.992 23.884,5.864 L32.932,5.816 C32.356,3.92 30.844,3.08 28.492,3.08 Z M55.56,0.776 L55.56,11.984 C55.56,17.408 51.312,19.28 47.232,19.28 C44.832,19.28 41.856,18.656 40.272,17.672 L41.376,14.96 C42.6,15.752 44.52,16.328 46.824,16.328 C50.112,16.328 51.84,15.104 51.84,12.608 L51.84,11.48 C50.616,13.16 48.384,14.096 46.032,14.096 C41.712,14.096 38.952,11.456 38.952,7.208 C38.952,2.96 41.712,0.296 46.032,0.296 C48.528,0.296 50.616,1.232 51.84,2.936 L51.84,0.776 L55.56,0.776 Z M47.064,11.216 C49.032,11.216 50.616,10.472 51.864,8.768 L51.864,5.648 C50.616,3.896 49.032,3.2 47.064,3.2 C44.16,3.2 42.552,4.688 42.552,7.208 C42.552,9.704 44.16,11.216 47.064,11.216 Z M67.484,14.528 C62.252,14.528 59.036,11.792 59.036,7.4 C59.036,2.984 62.252,0.272 67.484,0.272 C72.692,0.272 75.932,2.984 75.932,7.4 C75.932,11.792 72.692,14.528 67.484,14.528 Z M67.484,11.504 C70.292,11.504 72.356,10.136 72.356,7.4 C72.356,4.64 70.292,3.296 67.484,3.296 C64.7,3.296 62.636,4.64 62.636,7.4 C62.636,10.136 64.7,11.504 67.484,11.504 Z" id="pego"></path>
            </g>
        </g>
    </g>
</svg>